<svg xmlns="http://www.w3.org/2000/svg" viewBox="0 0 1427.3 322.91"><defs><style>.a{fill:#999;}.b{fill:#4d4d4d;}.c{fill:gray;}</style></defs><title>Jonas black logo</title><path class="a" d="M348.36,1062.32q10.44,11.51,18.11,16.19a29.53,29.53,0,0,0,15.54,4.68q14.49,0,21.83-12T419.5,1007L447,833.38h83.7L498.51,1037a55.73,55.73,0,0,0-.85,5.53q-9.59,62-31.52,84.77a90.39,90.39,0,0,1-32.48,21.51,113.08,113.08,0,0,1-41.21,7.24q-27.69,0-48.88-9a93.93,93.93,0,0,1-36.1-26.83Z" transform="translate(-307.47 -833.38)"/><path class="a" d="M691.54,855.94q65.9,0,105.11,37.94t39.22,101.83q0,69.88-46.21,115.23T671,1156.29q-64.17,0-102.68-37.65t-38.5-100.12q0-71.29,45.49-116.94T691.54,855.94Zm.57,73.59q-35.94,0-57.9,24.39t-22,64q0,30,16.4,47.35t44.92,17.4q35.37,0,57.62-24t22.25-62.46q0-31.38-16.12-48.78T692.11,929.53Z" transform="translate(-307.47 -833.38)"/><path class="a" d="M849.23,1145.17,886,865.36h74.73l-6.27,43.92q25.66-27.66,50.77-40.5a114.89,114.89,0,0,1,53-12.84q45.36,0,70.59,22.25t25.25,61.9q0,15.69-4.85,50.77-.57,4.27-.86,6.27l-19.39,148h-80.72l20.54-156q.86-8.28,1.28-14.41c.28-4.08.43-7.46.43-10.12q0-19.68-11.13-30.52t-31.37-10.84q-35.37,0-54.91,20.68t-25.24,64l-18,137.2Z" transform="translate(-307.47 -833.38)"/><path class="a" d="M1452.44,1145.17H1372l4.56-31.09q-14.27,21.11-35.65,31.66t-49.63,10.55q-53.62,0-83.43-34.94t-29.81-98.26q0-73,38.08-120.08T1313,855.94q29.94,0,52.76,12.13T1404,904.43l4.84-39.07h80.44ZM1396,989.72q0-32.52-17.12-50.92t-47.34-18.39q-34.52,0-54.62,25.81t-20.11,70.88q0,30.8,18.11,49.06t49.2,18.25q32.23,0,52.06-26T1396,989.72Z" transform="translate(-307.47 -833.38)"/><path class="a" d="M1530.27,1055.32q14.25,20.25,32.08,31.66t35.23,11.41q14.26,0,23.1-7.27a23.42,23.42,0,0,0,8.85-19q0-17.12-32.52-35.66-13.12-7.41-20.54-12.26-29.94-19.4-41.5-36.94t-11.55-41.21q0-39.08,30.66-64.61t78.58-25.53a133.71,133.71,0,0,1,55,11.56q25.95,11.55,47.07,34.08l-47.92,43.36q-15.4-16.83-30.09-25.1t-29-8.28q-13.11,0-21.39,6.85a21.88,21.88,0,0,0-8.27,17.68q0,15.4,43.64,39.65,12.56,7.14,19.4,11.12,22.82,13.13,33.94,30.95t11.12,41.5q0,42.8-30.23,69.6t-78.44,26.81q-33.09,0-61.18-13.12t-53.48-40.22Z" transform="translate(-307.47 -833.38)"/><path class="b" d="M436.44,904s35.66,5.3,78.19,30.88l15.27-101H446.17Z" transform="translate(-307.47 -833.38)"/><path class="b" d="M541.86,952l69.82,51.34s7.79-74,79.84-74c62.31,0,75.94,66.21,50.62,114.89,43,26.89,91.52-19.47,91.52-19.47S864.82,867,699.82,856.1C555.28,846.53,541.86,952,541.86,952Z" transform="translate(-307.47 -833.38)"/><path class="b" d="M869,994.7s145.74-77.06,188.57-139.37c0,0-50.62-3.89-103.19,54.52l7.78-44.78H886.23Z" transform="translate(-307.47 -833.38)"/><path class="c" d="M1054,1101.82s37.13-48.08,85.57-37.27l-10,80.91h-81.78Z" transform="translate(-307.47 -833.38)"/><path class="c" d="M1183.64,1072.61s66.71,45.59,129,33.91,156.7-90,156.7-90l-16.5,128.9h-81.78l5.84-31.15s-23.37,38.94-78.64,42C1238.67,1155.2,1204.56,1138,1183.64,1072.61Z" transform="translate(-307.47 -833.38)"/><path class="c" d="M1529.72,977.67s22.45-50.29,69.18-48.35c-9.74,21.42,33.1,38.95,81.78,70.1,73.34,60-3.9,140.2-31.16,146-17.52,9.74-103.2,29.21-167.45-42.84l48.68-48.68s38.94,58.42,83.73,40.89c25.31-17.52,23.36-40.89-46.33-74.5C1530.75,989.69,1529.72,977.67,1529.72,977.67Z" transform="translate(-307.47 -833.38)"/></svg>