<svg xmlns="http://www.w3.org/2000/svg" viewBox="0 0 733.01 165.84"><defs><style>.a{fill:#ff8c12;}.b{fill:#ff3e0f;}.c{fill:#ff4d4d;}</style></defs><title>Nitro logotype</title><path class="a" d="M649.45,529.49a46.39,46.39,0,0,0,9.29,8.32,15.22,15.22,0,0,0,8,2.4A12.32,12.32,0,0,0,677.94,534q3.76-6.18,8-33l14.11-89.15h43L726.55,516.48c-.14.65-.29,1.6-.43,2.84q-4.92,31.83-16.19,43.53a46.33,46.33,0,0,1-16.68,11,58,58,0,0,1-21.16,3.72q-14.22,0-25.11-4.6a48.15,48.15,0,0,1-18.53-13.78Z" transform="translate(-628.45 -411.91)"/><path class="a" d="M825.69,423.5q33.84,0,54,19.49t20.14,52.29q0,35.9-23.73,59.18t-60.94,23.29q-33,0-52.73-19.33T742.63,507q0-36.62,23.37-60.06T825.69,423.5Zm.29,37.8q-18.45,0-29.73,12.52T785,506.71q0,15.38,8.42,24.31T816.46,540q18.16,0,29.59-12.31t11.43-32.08q0-16.11-8.28-25T826,461.3Z" transform="translate(-628.45 -411.91)"/><path class="a" d="M906.67,572l18.9-143.7H964l-3.22,22.56q13.17-14.2,26.07-20.8a59,59,0,0,1,27.25-6.6q23.28,0,36.25,11.43t13,31.79q0,8.05-2.49,26.07c-.19,1.47-.34,2.54-.43,3.22l-10,76h-41.45l10.55-80.13q.43-4.25.66-7.39c.14-2.1.21-3.84.21-5.2q0-10.11-5.71-15.68t-16.11-5.57q-18.16,0-28.2,10.62t-13,32.89L948.13,572Z" transform="translate(-628.45 -411.91)"/><path class="a" d="M1216.46,572h-41.3l2.34-16a47.06,47.06,0,0,1-18.31,16.26q-11,5.42-25.49,5.42-27.54,0-42.85-17.94t-15.3-50.47q0-37.48,19.55-61.67t49.73-24.17q15.39,0,27.1,6.23a52.3,52.3,0,0,1,19.63,18.68l2.49-20.07h41.31Zm-29-79.83q0-16.71-8.79-26.15t-24.32-9.45q-17.71,0-28,13.26T1116,506.27q0,15.83,9.3,25.19t25.27,9.38q16.54,0,26.73-13.33T1187.46,492.21Z" transform="translate(-628.45 -411.91)"/><path class="a" d="M1256.43,525.9a59.89,59.89,0,0,0,16.48,16.26Q1282.06,548,1291,548q7.32,0,11.87-3.74a12,12,0,0,0,4.54-9.74q0-8.79-16.7-18.31-6.75-3.81-10.55-6.3-15.37-10-21.31-19a37.57,37.57,0,0,1-5.93-21.17q0-20.06,15.74-33.18T1309,423.5a68.69,68.69,0,0,1,28.27,5.94,74.68,74.68,0,0,1,24.17,17.5l-24.61,22.27a64.59,64.59,0,0,0-15.45-12.89,30.2,30.2,0,0,0-14.87-4.25q-6.73,0-11,3.51a11.28,11.28,0,0,0-4.25,9.09q0,7.9,22.42,20.36,6.43,3.66,10,5.71,11.71,6.74,17.43,15.89a39.43,39.43,0,0,1,5.71,21.32q0,22-15.53,35.74T1291,577.46a73.35,73.35,0,0,1-31.42-6.74q-14.43-6.74-27.47-20.65Z" transform="translate(-628.45 -411.91)"/><path class="b" d="M694.68,448.19s18.31,2.72,40.16,15.86l7.84-51.86h-43Z" transform="translate(-628.45 -411.91)"/><path class="b" d="M748.82,472.83l35.86,26.36s4-38,41-38c32,0,39,34,26,59,22.05,13.81,47-10,47-10s16-81-68.74-86.61C755.71,418.67,748.82,472.83,748.82,472.83Z" transform="translate(-628.45 -411.91)"/><path class="b" d="M916.83,494.77s74.85-39.58,96.85-71.58c0,0-26-2-53,28l4-23h-39Z" transform="translate(-628.45 -411.91)"/><path class="c" d="M1011.85,549.78s19.07-24.69,43.95-19.14l-5.12,41.55h-42Z" transform="translate(-628.45 -411.91)"/><path class="c" d="M1078.42,534.78s34.26,23.41,66.26,17.41,80.47-46.2,80.47-46.2l-8.47,66.2h-42l3-16s-12,20-40.39,21.56C1106.68,577.19,1089.16,568.36,1078.42,534.78Z" transform="translate(-628.45 -411.91)"/><path class="c" d="M1256.15,486s11.53-25.83,35.53-24.83c-5,11,17,20,42,36,37.66,30.81-2,72-16,75-9,5-53,15-86-22l25-25s20,30,43,21c13-9,12-21-23.79-38.26C1256.68,492.19,1256.15,486,1256.15,486Z" transform="translate(-628.45 -411.91)"/></svg>