<svg xmlns="http://www.w3.org/2000/svg" viewBox="0 0 2170.15 280.13">
  <defs>
    <style>
      .a {
        fill: #ff8c12;
      }

      .b {
        fill: #ff3e0f;
      }

      .c {
        fill: #ff4d4d;
      }
    </style>
  </defs>
  <title>type</title>
  <g>
    <path class="a" d="M244.67,570.5q8.84,9.75,15.35,13.72a25,25,0,0,0,13.18,4q12.27,0,18.51-10.2T305,523.55l23.29-147.16h71L372,549a46.93,46.93,0,0,0-.73,4.7q-8.12,52.54-26.72,71.86A76.45,76.45,0,0,1,317,643.81,95.75,95.75,0,0,1,282.05,650q-23.48,0-41.44-7.59A79.63,79.63,0,0,1,210,619.61Z" transform="translate(-210 -376.39)"/>
    <path class="a" d="M535.63,395.53q55.86,0,89.11,32.16T658,514q0,59.25-39.17,97.7T518.21,650.17q-54.41,0-87.05-31.92t-32.65-84.88q0-60.45,38.57-99.15T535.63,395.53Zm.48,62.39q-30.47,0-49.09,20.67T468.4,532.88q0,25.39,13.9,40.15t38.09,14.75q30,0,48.85-20.32t18.86-53q0-26.6-13.66-41.35T536.11,457.92Z" transform="translate(-210 -376.39)"/>
    <path class="a" d="M669.32,640.74l31.19-237.23h63.36l-5.32,37.24q21.76-23.46,43.05-34.34a97.38,97.38,0,0,1,45-10.88q38.45,0,59.85,18.86t21.4,52.47q0,13.31-4.11,43.05c-.32,2.42-.57,4.19-.72,5.32L906.55,640.74H838.11l17.42-132.28q.72-7,1.08-12.21t.37-8.59q0-16.68-9.43-25.87t-26.61-9.19q-30,0-46.55,17.53T753,524.42L737.76,640.74Z" transform="translate(-210 -376.39)"/>
    <path class="a" d="M1180.75,640.74h-68.2l3.87-26.36a77.61,77.61,0,0,1-30.23,26.84q-18.14,8.94-42.08,8.95-45.46,0-70.73-29.62t-25.27-83.31q0-61.9,32.28-101.81t82.1-39.9q25.4,0,44.74,10.27t32.4,30.84l4.12-33.13h68.19Zm-47.89-131.8q0-27.57-14.51-43.16t-40.14-15.6q-29.26,0-46.31,21.88t-17.05,60.1q0,26.12,15.36,41.59t41.71,15.48q27.33,0,44.14-22T1132.86,508.94Z" transform="translate(-210 -376.39)"/>
    <path class="a" d="M1246.73,564.56q12.09,17.18,27.2,26.85t29.87,9.67q12.09,0,19.59-6.17a19.85,19.85,0,0,0,7.49-16.08q0-14.51-27.57-30.23-11.11-6.29-17.41-10.4-25.39-16.44-35.18-31.31t-9.8-34.95q0-33.12,26-54.77t66.62-21.64a113.45,113.45,0,0,1,46.67,9.79,123.24,123.24,0,0,1,39.91,28.9L1379.49,471q-13.07-14.26-25.51-21.29t-24.55-7q-11.13,0-18.14,5.81a18.57,18.57,0,0,0-7,15q0,13,37,33.61,10.63,6.06,16.44,9.43,19.35,11.13,28.78,26.24t9.43,35.19q0,36.27-25.63,59t-66.5,22.74a120.93,120.93,0,0,1-51.87-11.13q-23.84-11.12-45.35-34.1Z" transform="translate(-210 -376.39)"/>
  </g>
  <path class="b" d="M319.34,436.28s30.24,4.49,66.3,26.18l12.94-85.61h-71Z" transform="translate(-210 -376.39)"/>
  <path class="b" d="M408.72,477l59.2,43.52s6.6-62.73,67.69-62.73c52.82,0,64.38,56.13,42.92,97.4,36.41,22.81,77.59-16.51,77.59-16.51s26.41-133.72-113.48-143C420.1,387.55,408.72,477,408.72,477Z" transform="translate(-210 -376.39)"/>
  <path class="b" d="M686.09,513.17S809.65,447.84,846,395c0,0-42.92-3.3-87.5,46.22l6.61-38H700.69Z" transform="translate(-210 -376.39)"/>
  <path class="c" d="M843,604s31.48-40.75,72.56-31.59L907.05,641H837.72Z" transform="translate(-210 -376.39)"/>
  <path class="c" d="M952.85,579.22s56.56,38.66,109.39,28.75,132.84-76.27,132.84-76.27L1181.1,641h-69.34l5-26.42s-19.81,33-66.67,35.6C999.5,649.24,970.58,634.67,952.85,579.22Z" transform="translate(-210 -376.39)"/>
  <path class="c" d="M1246.26,498.73s19-42.64,58.65-41c-8.25,18.16,28.07,33,69.34,59.43C1436.43,568,1371,636,1347.84,641c-14.86,8.25-87.5,24.76-142-36.32l41.27-41.27s33,49.52,71,34.66c21.46-14.85,19.81-34.66-39.28-63.16C1247.13,508.92,1246.26,498.73,1246.26,498.73Z" transform="translate(-210 -376.39)"/>
  <g>
    <path class="c" d="M1461.61,650.38l31.88-243h119.7l-2.33,18.59h-98.94l-10.46,79.69h96.12l-2.32,18.26H1499l-16.6,126.51Z" transform="translate(-210 -376.39)"/>
    <path class="c" d="M1636.75,650.38l31.88-243h119.7L1786,425.92h-98.94l-10.46,79.69h96.12l-2.32,18.26h-96.29l-13.95,107.41H1761.6l-2.83,19.1Z" transform="translate(-210 -376.39)"/>
    <path class="c" d="M1816.54,650.38l31.88-243h119.69l-2.32,18.59h-99l-10.46,79.69h96.13l-2.33,18.26h-96.29L1840,631.28h101.43l-2.82,19.1Z" transform="translate(-210 -376.39)"/>
    <path class="c" d="M1996.33,650.38l31.88-243h32.37q43.49,0,62.25,4.81a96.05,96.05,0,0,1,34,16.27,97.29,97.29,0,0,1,30.63,38.85q10.71,23.91,10.71,53.62a147.56,147.56,0,0,1-8.14,49.23,120.56,120.56,0,0,1-23.41,40.42,116.17,116.17,0,0,1-24.65,21,111.19,111.19,0,0,1-29.47,13,145.78,145.78,0,0,1-22.66,4.39,258.48,258.48,0,0,1-29.63,1.42h-63.92Zm23.08-18.1h15.27q47.31,0,66.82-4.48t33.62-15.11q19.26-14.78,30-38.85t10.71-53q0-25.06-8.46-44.82a82.78,82.78,0,0,0-24.74-32.71,74.93,74.93,0,0,0-28.89-13.94q-16.6-4.16-50.13-4.15h-16.94Z" transform="translate(-210 -376.39)"/>
    <path class="c" d="M2237.38,592.6q10.62,22.75,24.82,33.62t33.28,10.87q22.92,0,36.44-13.94t13.53-37.35q0-16.6-7.8-27.31t-32.87-24q-33.21-17.76-43.5-32.13T2251,465.77q0-27.9,19.18-45.91t49.22-18q19.43,0,34.12,8.63t26.64,27.4l-13.94,12.28q-9-14.94-20.76-22.41a48.26,48.26,0,0,0-26.39-7.47q-21.09,0-34.7,13t-13.61,32.87q0,15.11,7.63,25.23t35.53,25.07q32.53,17.6,42.75,32.13t10.21,36.93q0,31.54-19.92,51.3t-51.8,19.76q-24.9,0-42.75-12.37t-29.3-37.6Z" transform="translate(-210 -376.39)"/>
  </g>
</svg>
